<svg width="31" height="31" viewBox="0 0 31 31" fill="none" xmlns="http://www.w3.org/2000/svg">
<path fill-rule="evenodd" clip-rule="evenodd" d="M26.6374 10.4733H28.7082C28.9326 10.4725 29.1541 10.5236 29.3555 10.6227C29.5569 10.7217 29.7327 10.8659 29.8691 11.0441C30.0055 11.2223 30.0988 11.4296 30.1418 11.6499C30.1848 11.8701 30.1763 12.0973 30.1169 12.3138L26.0351 27.2806C25.688 28.5494 24.5301 29.4317 23.2205 29.4317H7.94735C7.30785 29.4307 6.68631 29.22 6.17795 28.8321C5.66959 28.4441 5.30245 27.9001 5.13277 27.2835L1.05089 12.3152C0.992221 12.0989 0.984159 11.8719 1.02733 11.652C1.0705 11.432 1.16374 11.225 1.29983 11.0469C1.43592 10.8687 1.61119 10.7244 1.81207 10.6249C2.01295 10.5254 2.23403 10.4736 2.45818 10.4733H4.52902L9.94235 1L12.4755 2.44667L7.88756 10.4733H23.2788L18.6923 2.44667L21.224 1L26.6374 10.4733ZM7.94735 26.515H23.219L26.7978 13.39H4.3686L7.94735 26.515ZM14.125 16.3066H11.2083V23.5983H14.125V16.3066ZM19.9583 16.3066H17.0417V23.5983H19.9583V16.3066Z" fill="white"/>
</svg>
