<svg width="25" height="26" viewBox="0 0 25 26" fill="none" xmlns="http://www.w3.org/2000/svg">
<path d="M24.6971 7.65506C24.6835 6.61586 24.493 5.58699 24.134 4.61447C23.8227 3.79416 23.3472 3.04918 22.738 2.42711C22.1287 1.80504 21.3991 1.31957 20.5956 1.00172C19.6554 0.641351 18.6621 0.446491 17.658 0.425441C16.3652 0.366441 15.9553 0.349976 12.6737 0.349976C9.39198 0.349976 8.97136 0.349976 7.68798 0.425441C6.68434 0.446646 5.69149 0.641504 4.75168 1.00172C3.94814 1.31935 3.21838 1.80474 2.60909 2.42684C1.99981 3.04893 1.52441 3.79404 1.21333 4.61447C0.859669 5.57376 0.669236 6.58771 0.650256 7.61252C0.592471 8.93386 0.575001 9.35235 0.575001 12.703C0.575001 16.0537 0.575001 16.4818 0.650256 17.7935C0.670414 18.8199 0.859896 19.8325 1.21333 20.7943C1.52494 21.6145 2.00068 22.3593 2.61017 22.9811C3.21966 23.603 3.94949 24.0882 4.75302 24.4057C5.69027 24.7806 6.68329 24.9894 7.68933 25.0231C8.98345 25.0821 9.39333 25.1 12.675 25.1C15.9567 25.1 16.3773 25.1 17.6607 25.0231C18.6647 25.003 19.6581 24.8085 20.5983 24.4482C21.4015 24.13 22.131 23.6444 22.7402 23.0224C23.3494 22.4004 23.825 21.6556 24.1367 20.8355C24.4901 19.875 24.6796 18.8624 24.6997 17.8347C24.7575 16.5147 24.775 16.0962 24.775 12.7442C24.7723 9.39351 24.7723 8.96816 24.6971 7.65506ZM12.6656 19.0394C9.23341 19.0394 6.45299 16.2005 6.45299 12.6962C6.45299 9.19181 9.23341 6.35293 12.6656 6.35293C14.3133 6.35293 15.8935 7.02123 17.0586 8.21082C18.2237 9.40041 18.8782 11.0138 18.8782 12.6962C18.8782 14.3785 18.2237 15.9919 17.0586 17.1815C15.8935 18.3711 14.3133 19.0394 12.6656 19.0394ZM19.1255 7.59743C18.3232 7.59743 17.6768 6.93607 17.6768 6.1183C17.6768 5.92415 17.7143 5.7319 17.787 5.55252C17.8598 5.37315 17.9665 5.21017 18.1009 5.07288C18.2354 4.9356 18.395 4.8267 18.5707 4.7524C18.7464 4.6781 18.9346 4.63986 19.1248 4.63986C19.315 4.63986 19.5032 4.6781 19.6789 4.7524C19.8546 4.8267 20.0142 4.9356 20.1487 5.07288C20.2831 5.21017 20.3898 5.37315 20.4626 5.55252C20.5353 5.7319 20.5728 5.92415 20.5728 6.1183C20.5728 6.93607 19.9251 7.59743 19.1255 7.59743Z" fill="#FFFDFD"/>
</svg>
