<svg width="32" height="33" viewBox="0 0 32 33" fill="none" xmlns="http://www.w3.org/2000/svg">
<path d="M28.9195 11.3789C28.9055 10.3292 28.7086 9.28991 28.3378 8.30757C28.0162 7.47898 27.525 6.72646 26.8956 6.09811C26.2662 5.46976 25.5125 4.97939 24.6825 4.65833C23.7112 4.29432 22.685 4.09749 21.6477 4.07623C20.3122 4.01663 19.8888 4 16.4986 4C13.1085 4 12.6739 4 11.3481 4.07623C10.3113 4.09765 9.28563 4.29447 8.31475 4.65833C7.48464 4.97917 6.73076 5.46946 6.10133 6.09784C5.47191 6.72622 4.9808 7.47885 4.65943 8.30757C4.29408 9.27654 4.09735 10.3007 4.07774 11.3359C4.01805 12.6706 4 13.0933 4 16.4778C4 19.8623 4 20.2948 4.07774 21.6197C4.09857 22.6564 4.29431 23.6793 4.65943 24.6509C4.98134 25.4793 5.47281 26.2317 6.10245 26.8598C6.73209 27.4879 7.48604 27.978 8.31614 28.2987C9.28436 28.6773 10.3102 28.8883 11.3495 28.9224C12.6864 28.982 13.1098 29 16.5 29C19.8902 29 20.3247 29 21.6505 28.9224C22.6877 28.902 23.714 28.7056 24.6853 28.3417C25.515 28.0202 26.2686 27.5297 26.8979 26.9014C27.5273 26.2731 28.0186 25.5208 28.3406 24.6924C28.7057 23.7223 28.9014 22.6994 28.9223 21.6613C28.982 20.328 29 19.9053 29 16.5194C28.9972 13.1349 28.9972 12.7052 28.9195 11.3789V11.3789ZM16.4903 22.8782C12.9446 22.8782 10.0723 20.0106 10.0723 16.4709C10.0723 12.9311 12.9446 10.0636 16.4903 10.0636C18.1924 10.0636 19.8249 10.7386 21.0285 11.9402C22.2321 13.1418 22.9083 14.7716 22.9083 16.4709C22.9083 18.1702 22.2321 19.7999 21.0285 21.0015C19.8249 22.2031 18.1924 22.8782 16.4903 22.8782V22.8782ZM23.1637 11.3207C22.3349 11.3207 21.6671 10.6526 21.6671 9.82659C21.6671 9.63048 21.7058 9.43628 21.781 9.2551C21.8562 9.07391 21.9664 8.90929 22.1053 8.77061C22.2442 8.63194 22.4091 8.52194 22.5906 8.44689C22.7721 8.37184 22.9666 8.33321 23.163 8.33321C23.3595 8.33321 23.554 8.37184 23.7355 8.44689C23.9169 8.52194 24.0818 8.63194 24.2207 8.77061C24.3597 8.90929 24.4698 9.07391 24.545 9.2551C24.6202 9.43628 24.6589 9.63048 24.6589 9.82659C24.6589 10.6526 23.9897 11.3207 23.1637 11.3207Z" fill="#FFFDFD"/>
</svg>
