<svg width="32" height="32" viewBox="0 0 32 32" fill="none" xmlns="http://www.w3.org/2000/svg">
<path d="M31 6.96132C30.1646 8.2361 29.1397 9.32279 27.9252 10.2214C27.9372 10.4624 27.9432 10.7348 27.9432 11.0386C27.9432 12.7265 27.7033 14.4164 27.2236 16.1083C26.7438 17.8003 26.011 19.4198 25.0251 20.9669C24.0392 22.514 22.8648 23.8845 21.5019 25.0786C20.139 26.2727 18.5008 27.2248 16.5872 27.9349C14.6736 28.645 12.6227 29 10.4345 29C7.01958 29 3.87473 28.0542 1 26.1627C1.51023 26.2209 1.99958 26.2501 2.46806 26.2501C5.32099 26.2501 7.86911 25.3486 10.1124 23.5456C8.78223 23.5206 7.59094 23.1005 6.53856 22.2854C5.48617 21.4703 4.76195 20.4287 4.36588 19.1607C4.75736 19.2372 5.14375 19.2755 5.52503 19.2755C6.07386 19.2755 6.61391 19.202 7.14516 19.0552C5.72559 18.7635 4.54794 18.0382 3.6122 16.8792C2.6765 15.7202 2.20865 14.3825 2.20865 12.8661V12.7879C3.07999 13.2829 4.0094 13.5461 4.9969 13.5777C4.15596 13.0026 3.48922 12.2526 2.99668 11.3278C2.50411 10.4029 2.25783 9.40207 2.25783 8.32522C2.25783 7.18951 2.53524 6.13194 3.09007 5.15252C4.63382 7.09597 6.5044 8.64924 8.7018 9.81232C10.8992 10.9754 13.2567 11.6214 15.7741 11.7502C15.6667 11.2911 15.6129 10.8121 15.6127 10.313C15.6127 8.57061 16.2138 7.08283 17.4159 5.8497C18.6181 4.61657 20.0684 4 21.7669 4C23.5451 4 25.043 4.66426 26.2604 5.99277C27.6514 5.71012 28.9538 5.19888 30.1676 4.45905C29.7 5.96888 28.7988 7.13361 27.4642 7.95325C28.6909 7.80371 29.8694 7.47307 31 6.96132H31Z" fill="#FFFDFD"/>
</svg>
